<svg width="153" height="136" viewBox="0 0 153 136" fill="none" xmlns="http://www.w3.org/2000/svg">
<g clip-path="url(#clip0)">
<path opacity="0.42" d="M23.1133 10.8927C47.8836 -5.38584 83.372 -3.20436 105.947 15.9896C111.254 20.5 115.881 25.8151 121.567 29.8449C126.505 33.3412 132.176 35.8174 136.678 39.8531C145.944 48.1545 148.686 61.7298 147.471 74.0846C145.364 95.4983 132.421 115.58 113.745 126.39C91.7973 139.101 63.6812 138.556 40.3575 128.574C34.3639 126.009 28.5626 122.829 23.7464 118.448C6.49328 102.774 9.79775 80.6142 2.33975 60.8159C-4.99104 41.2652 6.1649 22.0182 23.1133 10.8927Z" fill="#2F80ED"/>
<path d="M149.278 86.7694L107.755 110.866C105.323 112.278 101.347 112.281 98.8797 110.866L29.1366 71.0687C26.6664 69.6596 26.6397 67.372 29.0715 65.9599L70.5949 41.8783C73.0296 40.4662 77.0027 40.4633 79.47 41.8783L149.213 81.6754C151.683 83.0698 151.713 85.3574 149.278 86.7694Z" fill="#2F80ED"/>
<path d="M151.192 84.196L109.672 108.278C107.237 109.69 103.261 109.693 100.797 108.278L31.0537 68.4806C28.5835 67.0715 28.5539 64.7839 30.9886 63.3718L72.518 39.2872C74.9527 37.8751 78.9287 37.8722 81.393 39.2872L151.136 79.0843C153.598 80.5023 153.627 82.784 151.192 84.196Z" fill="#2F80ED"/>
<path d="M149.681 85.0744L108.161 109.156C105.726 110.568 101.75 110.571 99.2856 109.156L29.5424 69.359C27.0722 67.9499 27.0456 65.6623 29.4803 64.2502L71.0008 40.1685C73.4355 38.7565 77.4115 38.7535 79.8758 40.1685L149.619 79.9657C152.098 81.3866 152.116 83.6624 149.681 85.0744Z" fill="#2F80ED"/>
<path opacity="0.58" d="M149.681 85.0714L108.158 109.156C107.848 109.334 107.525 109.486 107.191 109.613C104.771 110.547 101.445 110.394 99.2799 109.162L29.5368 69.3648C27.0696 67.9587 27.04 65.6711 29.4718 64.259L48.4969 53.2278L70.9804 40.1773C73.4121 38.7653 77.3882 38.7623 79.8554 40.1773L149.596 79.9744C152.098 81.3865 152.116 83.6623 149.681 85.0714Z" fill="url(#paint0_linear)"/>
<path opacity="0.58" d="M67.8846 42.0405L146.808 86.4865L132.815 94.6228L54.3916 49.6757L67.8846 42.0405Z" fill="url(#paint1_linear)"/>
<path opacity="0.58" d="M126.216 98.579L107.191 109.613C104.771 110.548 101.445 110.394 99.2799 109.162L29.5368 69.3649C27.0696 67.9588 27.04 65.6712 29.4718 64.2591L48.4969 53.2279C50.9139 52.2934 54.242 52.4467 56.4075 53.679L126.151 93.4731C128.618 94.8823 128.647 97.1698 126.216 98.579Z" fill="url(#paint2_linear)"/>
<path d="M81.3695 58.2276L72.4353 63.4042C71.0862 64.1883 68.8852 64.1883 67.5126 63.4042L56.5667 57.1575C55.1969 56.3763 55.1821 55.0939 56.5312 54.3245L65.4654 49.1421C66.8144 48.3609 69.0154 48.3579 70.3881 49.1421L81.334 55.3887C82.7037 56.1788 82.7185 57.4464 81.3695 58.2276Z" fill="#FDB523"/>
<path d="M75.5986 61.5175L74.1194 62.3665L69.5606 59.7605C68.788 60.0545 67.9512 60.1399 67.1348 60.0081L66.9158 59.9669L66.7443 59.8725C66.3626 59.6662 62.9724 57.8384 62.2032 57.2754C61.3867 56.6858 61.8097 55.8014 62.2032 55.259L58.5674 53.1954L60.0466 52.3464L64.7799 55.0497L64.3865 55.4447C63.9664 55.884 63.7445 56.4234 63.8599 56.5531C64.3302 56.898 66.4573 58.0802 67.9217 58.8732C68.231 58.8467 68.5268 58.7355 68.7766 58.5518L69.5014 58.0448L75.5986 61.5175Z" fill="#EFA92B"/>
<path d="M78.3306 59.9286L79.8098 59.0796L75.2421 56.4737C75.8752 55.9253 75.8338 55.3682 75.6533 55.0763L75.5794 54.9496L75.4196 54.8523C75.0557 54.6342 71.8489 52.7003 70.8667 52.2611C69.8224 51.7953 68.287 52.0459 67.3611 52.2611L63.7253 50.1975L62.2461 51.0465L66.9795 53.7498L67.6687 53.5287C68.432 53.284 69.3668 53.1513 69.5946 53.2162C70.1863 53.4845 72.2572 54.6902 73.6565 55.5333C73.6357 55.6364 73.5381 55.8281 73.1062 56.0285L72.2335 56.4501L78.3306 59.9286Z" fill="#EFA92B"/>
<path d="M77.2134 60.642L76.9028 60.8218L61.0342 51.7628L61.3419 51.583L77.2134 60.642Z" fill="#EFA92B"/>
<path d="M72.3638 63.4543L72.0532 63.6311L56.1846 54.5751L56.4952 54.3953L72.3638 63.4543Z" fill="#EFA92B"/>
<path d="M82.0581 57.8296L81.7505 58.0095L65.8789 48.9505L66.1895 48.7706L82.0581 57.8296Z" fill="#EFA92B"/>
<path d="M87.0989 66.6659C86.4445 66.9662 85.774 67.1049 85.0875 67.0821C84.406 67.0593 83.7619 66.8761 83.1552 66.5325C82.4974 66.1601 82.2042 65.7255 82.2754 65.2286C82.3492 64.7332 82.7791 64.2578 83.5649 63.8025L84.0973 63.4941C84.6119 63.196 85.1561 62.9858 85.7301 62.8636C86.3066 62.7428 86.8683 62.7181 87.4153 62.7897C87.9647 62.8598 88.4625 63.0211 88.9087 63.2737C89.5002 63.6086 89.8096 63.9725 89.8369 64.3655C89.8669 64.7571 89.6209 65.1376 89.099 65.5071L88.3609 65.0892C88.7383 64.7976 88.9188 64.5339 88.9023 64.2981C88.8885 64.0637 88.6903 63.8383 88.3079 63.6218C87.8388 63.3562 87.298 63.2475 86.6856 63.2957C86.0757 63.3453 85.4526 63.5544 84.8163 63.923L84.2802 64.2336C83.6794 64.5817 83.3277 64.93 83.2252 65.2785C83.1227 65.627 83.2984 65.9297 83.7522 66.1867C84.1601 66.4176 84.5636 66.5416 84.9629 66.5585C85.3672 66.5754 85.8331 66.4719 86.3608 66.248L87.0989 66.6659ZM90.6296 68.1117L89.3218 67.3712L87.0821 68.6688L86.3441 68.2509L91.8805 65.0434L93.7237 66.087C94.3509 66.4421 94.6907 66.7971 94.7434 67.1522C94.7985 67.5086 94.5548 67.844 94.0124 68.1583C93.6676 68.358 93.2729 68.4787 92.8282 68.5202C92.386 68.5631 91.9346 68.5268 91.4739 68.4111L90.4318 70.513L90.3862 70.5395L89.5984 70.0935L90.6296 68.1117ZM89.9188 67.0254L91.0469 67.6641C91.4115 67.8705 91.7946 67.98 92.1964 67.9926C92.6006 68.0066 92.96 67.9225 93.2743 67.7404C93.6165 67.5422 93.7756 67.3317 93.7517 67.109C93.7302 66.8878 93.527 66.6668 93.142 66.4459L92.0177 65.8093L89.9188 67.0254ZM96.8803 71.2848L94.4672 69.9186L92.5052 71.0554L95.3083 72.6424L94.7113 72.9883L91.1739 70.9855L96.7104 67.778L100.209 69.7591L99.6086 70.1072L96.8438 68.5418L95.0642 69.5728L97.4773 70.939L96.8803 71.2848ZM95.6252 73.5057L101.162 70.2982L102.733 71.1881C103.218 71.4624 103.54 71.7665 103.699 72.1007C103.858 72.4348 103.842 72.7727 103.651 73.1143C103.462 73.4574 103.114 73.7773 102.607 74.074L102.253 74.2788C101.731 74.5814 101.171 74.7887 100.574 74.9009C99.98 75.0145 99.389 75.0254 98.8013 74.9337C98.2161 74.8434 97.6711 74.6583 97.1664 74.3783L95.6252 73.5057ZM101.295 71.062L96.9565 73.5756L97.7289 74.013C98.2949 74.3334 98.9096 74.4811 99.573 74.4559C100.239 74.4322 100.895 74.2331 101.542 73.8586L101.865 73.6714C102.493 73.3072 102.832 72.94 102.881 72.5699C102.935 72.1998 102.692 71.8588 102.152 71.547L101.295 71.062ZM101.553 76.8617L100.818 76.446L106.355 73.2385L107.089 73.6542L101.553 76.8617ZM111.567 76.8776L109.777 75.8643L104.841 78.7238L104.111 78.3102L109.047 75.4508L107.261 74.4397L107.862 74.0916L112.168 76.5296L111.567 76.8776ZM77.5809 72.1801C76.9264 72.4804 76.256 72.6192 75.5694 72.5964C74.888 72.5735 74.2439 72.3903 73.6371 72.0468C72.9794 71.6744 72.6861 71.2398 72.7574 70.7429C72.8312 70.2474 73.261 69.7721 74.0469 69.3168L74.5792 69.0084C75.0938 68.7103 75.6381 68.5001 76.2121 68.3778C76.7886 68.257 77.3503 68.2324 77.8972 68.304C78.4467 68.374 78.9445 68.5354 79.3907 68.788C79.9821 69.1229 80.2915 69.4868 80.3189 69.8798C80.3488 70.2713 80.1028 70.6519 79.581 71.0214L78.8429 70.6035C79.2203 70.3119 79.4007 70.0482 79.3843 69.8124C79.3704 69.578 79.1723 69.3526 78.7899 69.136C78.3208 68.8704 77.78 68.7617 77.1676 68.8099C76.5577 68.8595 75.9346 69.0687 75.2983 69.4373L74.7621 69.7479C74.1613 70.096 73.8097 70.4443 73.7072 70.7928C73.6047 71.1413 73.7803 71.444 74.2341 71.7009C74.642 71.9319 75.0456 72.0558 75.4448 72.0728C75.8491 72.0897 76.3151 71.9862 76.8428 71.7623L77.5809 72.1801ZM81.3494 74.671L79.0167 73.3503L77.0478 73.8908L76.2907 73.4621L83.9533 71.4584L84.5957 71.8221L81.1894 76.2356L80.436 75.8091L81.3494 74.671ZM79.8393 73.1278L81.7322 74.1995L83.3733 72.1623L79.8393 73.1278ZM86.2206 76.5186L84.9128 75.7782L82.6731 77.0757L81.9351 76.6578L87.4715 73.4503L89.3147 74.4939C89.9419 74.849 90.2818 75.2041 90.3344 75.5591C90.3895 75.9155 90.1459 76.2509 89.6034 76.5652C89.2586 76.7649 88.8639 76.8856 88.4192 76.9271C87.9771 76.9701 87.5256 76.9337 87.0649 76.818L86.0228 78.92L85.9772 78.9464L85.1894 78.5004L86.2206 76.5186ZM85.5098 75.4323L86.6379 76.071C87.0025 76.2774 87.3856 76.3869 87.7874 76.3995C88.1917 76.4135 88.551 76.3294 88.8653 76.1473C89.2075 75.9491 89.3667 75.7386 89.3427 75.5159C89.3212 75.2947 89.118 75.0737 88.733 74.8528L87.6088 74.2163L85.5098 75.4323ZM86.765 79.3924L92.3014 76.1849L93.8731 77.0748C94.3575 77.349 94.6793 77.6532 94.8386 77.9873C94.9979 78.3214 94.9817 78.6593 94.7902 79.001C94.6013 79.3441 94.2533 79.664 93.7463 79.9606L93.3927 80.1655C92.8705 80.468 92.3109 80.6754 91.714 80.7876C91.1197 80.9012 90.5287 80.9121 89.941 80.8204C89.3558 80.7301 88.8108 80.545 88.3061 80.265L86.765 79.3924ZM92.4348 76.9487L88.0962 79.4623L88.8687 79.8996C89.4346 80.2201 90.0493 80.3677 90.7127 80.3426C91.3787 80.3189 92.0349 80.1198 92.6813 79.7453L93.0045 79.5581C93.6332 79.1938 93.972 78.8267 94.021 78.4566C94.0751 78.0865 93.8319 77.7455 93.2914 77.4337L92.4348 76.9487Z" fill="#2F80ED"/>
<path d="M71.0093 83.6242L36.9557 64.0322C36.2013 63.5988 36.296 62.853 37.1657 62.3371C38.0355 61.836 39.3549 61.7829 40.1093 62.2163L74.1629 81.8082C74.9172 82.2416 74.8226 82.9874 73.9499 83.5003C73.0801 84.0015 71.7636 84.0575 71.0093 83.6242Z" fill="#2F80ED"/>
<path d="M122.014 85.2189L80.5053 109.298C78.0705 110.71 74.0945 110.713 71.6302 109.298L1.88412 69.5005C-0.583148 68.0914 -0.612731 65.8038 1.82199 64.3917L43.3425 40.31C45.7772 38.898 49.7532 38.895 52.2175 40.31L121.961 80.1071C124.419 81.5163 124.449 83.8038 122.014 85.2189Z" fill="#2F80ED"/>
<path d="M122.417 83.5209L80.8965 107.603C78.4618 109.015 74.4858 109.015 72.0214 107.603L2.27832 67.8054C-0.191905 66.3963 -0.221488 64.1087 2.21323 62.6967L43.7307 38.612C46.1655 37.2 50.1415 37.197 52.6058 38.612L122.349 78.4091C124.825 79.8212 124.852 82.1088 122.417 83.5209Z" fill="#2F80ED"/>
<path opacity="0.58" d="M122.419 83.518L80.8959 107.6C80.5864 107.779 80.2629 107.933 79.9285 108.06C77.5086 108.994 74.1805 108.841 72.0149 107.609L2.27181 67.8114C-0.195452 66.4023 -0.225036 64.1176 2.20969 62.7056L21.2319 51.6744L43.7301 38.6239C46.1649 37.2118 50.1379 37.2089 52.6052 38.6239L122.348 78.421C124.822 79.8213 124.851 82.1059 122.419 83.518Z" fill="url(#paint3_linear)"/>
<path opacity="0.58" d="M98.9507 97.0254L79.9285 108.059C77.5086 108.994 74.1805 108.841 72.0149 107.608L2.27181 67.8113C-0.195452 66.4022 -0.225036 64.1176 2.20969 62.7055L21.2319 51.6743C23.6518 50.7398 26.977 50.8931 29.1425 52.1254L98.8856 91.9225C101.353 93.3287 101.382 95.6163 98.9507 97.0254Z" fill="url(#paint4_linear)"/>
<path d="M54.105 56.6741L45.1737 61.8566C43.8247 62.6378 41.6237 62.6407 40.248 61.8566L29.3021 55.6099C27.9324 54.8257 27.9147 53.5463 29.2667 52.7769L38.2009 47.5974C39.5528 46.8132 41.7509 46.8132 43.1265 47.5974L54.0724 53.8441C55.4392 54.6223 55.4569 55.8929 54.105 56.6741Z" fill="#FDB523"/>
<path d="M48.3339 59.9611L46.8695 60.813L42.3047 58.207C41.5317 58.4993 40.6953 58.5847 39.8789 58.4547L39.657 58.4104L39.4884 58.319C39.1038 58.1127 35.7165 56.285 34.9473 55.7219C34.1308 55.1323 34.5509 54.248 34.9473 53.7055L31.3145 51.642L32.7788 50.793L37.5122 53.4933L37.1306 53.8912C36.7134 54.3334 36.4916 54.8729 36.604 55.0026C37.0744 55.3475 39.2014 56.5296 40.6658 57.3226C40.9757 57.2949 41.2722 57.1838 41.5237 57.0013L42.2485 56.4943L48.3339 59.9611Z" fill="#EFA92B"/>
<path d="M51.0701 58.375L52.5345 57.526L47.9638 54.9201C48.594 54.3688 48.5555 53.8146 48.3751 53.5227L48.2981 53.396L48.1384 53.2987C47.7775 53.0806 44.5706 51.1467 43.5855 50.7075C42.5412 50.2417 41.0088 50.4923 40.0798 50.7075L36.444 48.6439L34.9648 49.4929L39.6982 52.1962L40.3845 51.9721C41.1478 51.7304 42.0826 51.5977 42.3134 51.6626C42.9051 51.9309 44.9759 53.1366 46.3752 53.9797C46.3545 54.0829 46.2569 54.2745 45.822 54.4749L44.9345 54.8965L51.0701 58.375Z" fill="#EFA92B"/>
<path d="M49.9487 59.0884L49.6411 59.2653L33.7695 50.2092L34.0802 50.0294L49.9487 59.0884Z" fill="#EFA92B"/>
<path d="M45.1001 61.8977L44.7925 62.0775L28.9209 53.0215L29.2315 52.8417L45.1001 61.8977Z" fill="#EFA92B"/>
<path d="M54.7974 56.276L54.4868 56.4559L38.6182 47.3969L38.9288 47.217L54.7974 56.276Z" fill="#EFA92B"/>
<path d="M59.8352 65.1094C59.1808 65.4096 58.5103 65.5484 57.8238 65.5256C57.1424 65.5027 56.4983 65.3196 55.8915 64.976C55.2337 64.6036 54.9405 64.169 55.0118 63.6721C55.0856 63.1767 55.5154 62.7013 56.3013 62.246L56.8336 61.9376C57.3482 61.6395 57.8925 61.4293 58.4664 61.307C59.0429 61.1862 59.6046 61.1616 60.1516 61.2332C60.7011 61.3032 61.1989 61.4646 61.645 61.7172C62.2365 62.0521 62.5459 62.416 62.5733 62.809C62.6032 63.2005 62.3572 63.5811 61.8353 63.9506L61.0973 63.5327C61.4746 63.2411 61.6551 62.9774 61.6387 62.7416C61.6248 62.5072 61.4266 62.2818 61.0442 62.0653C60.5751 61.7997 60.0344 61.691 59.4219 61.7391C58.812 61.7887 58.1889 61.9979 57.5526 62.3665L57.0165 62.6771C56.4157 63.0252 56.0641 63.3735 55.9615 63.722C55.859 64.0705 56.0347 64.3732 56.4885 64.6301C56.8964 64.8611 57.3 64.985 57.6992 65.002C58.1035 65.0189 58.5695 64.9154 59.0972 64.6915L59.8352 65.1094ZM63.366 66.5552L62.0581 65.8147L59.8185 67.1123L59.0804 66.6944L64.6168 63.4869L66.46 64.5305C67.0872 64.8856 67.4271 65.2406 67.4797 65.5956C67.5348 65.9521 67.2912 66.2875 66.7487 66.6018C66.4039 66.8015 66.0092 66.9221 65.5645 66.9637C65.1224 67.0066 64.6709 66.9703 64.2102 66.8546L63.1681 68.9565L63.1225 68.983L62.3347 68.5369L63.366 66.5552ZM62.6551 65.4689L63.7832 66.1076C64.1478 66.314 64.5309 66.4235 64.9327 66.436C65.337 66.4501 65.6963 66.366 66.0106 66.1839C66.3529 65.9856 66.512 65.7752 66.488 65.5525C66.4666 65.3313 66.2633 65.1102 65.8784 64.8894L64.7541 64.2528L62.6551 65.4689ZM69.6166 69.7283L67.2036 68.3621L65.2415 69.4988L68.0446 71.0859L67.4476 71.4317L63.9103 69.429L69.4467 66.2215L72.9458 68.2026L72.345 68.5507L69.5801 66.9852L67.8006 68.0162L70.2136 69.3824L69.6166 69.7283ZM68.3616 71.9492L73.898 68.7417L75.4697 69.6316C75.9541 69.9058 76.2759 70.21 76.4352 70.5441C76.5945 70.8782 76.5784 71.2161 76.3868 71.5578C76.1979 71.9009 75.8499 72.2208 75.3429 72.5174L74.9893 72.7223C74.4671 73.0248 73.9075 73.2322 73.3107 73.3444C72.7163 73.458 72.1253 73.4689 71.5376 73.3772C70.9524 73.2869 70.4075 73.1017 69.9027 72.8218L68.3616 71.9492ZM74.0314 69.5055L69.6928 72.0191L70.4653 72.4564C71.0312 72.7769 71.6459 72.9245 72.3093 72.8994C72.9753 72.8757 73.6315 72.6766 74.2779 72.3021L74.6011 72.1149C75.2298 71.7506 75.5686 71.3835 75.6176 71.0134C75.6717 70.6433 75.4285 70.3023 74.888 69.9905L74.0314 69.5055ZM74.289 75.3052L73.5547 74.8895L79.0912 71.682L79.8254 72.0977L74.289 75.3052ZM84.3031 75.3211L82.5134 74.3078L77.5777 77.1672L76.8473 76.7537L81.7829 73.8942L79.9971 72.8831L80.5979 72.5351L84.9038 74.973L84.3031 75.3211ZM50.3172 70.6236C49.6628 70.9239 48.9923 71.0626 48.3058 71.0398C47.6243 71.017 46.9802 70.8338 46.3735 70.4903C45.7157 70.1179 45.4225 69.6832 45.4937 69.1863C45.5675 68.6909 45.9974 68.2156 46.7832 67.7603L47.3156 67.4519C47.8302 67.1537 48.3744 66.9435 48.9484 66.8213C49.5249 66.7005 50.0866 66.6759 50.6335 66.7474C51.183 66.8175 51.6808 66.9788 52.127 67.2314C52.7185 67.5663 53.0279 67.9303 53.0552 68.3233C53.0851 68.7148 52.8392 69.0953 52.3173 69.4648L51.5792 69.047C51.9566 68.7553 52.137 68.4916 52.1206 68.2558C52.1067 68.0215 51.9086 67.796 51.5262 67.5795C51.0571 67.3139 50.5163 67.2052 49.9039 67.2534C49.294 67.303 48.6709 67.5121 48.0346 67.8808L47.4985 68.1914C46.8977 68.5394 46.546 68.8877 46.4435 69.2362C46.341 69.5848 46.5167 69.8875 46.9705 70.1444C47.3784 70.3754 47.7819 70.4993 48.1811 70.5163C48.5854 70.5332 49.0514 70.4297 49.5791 70.2057L50.3172 70.6236ZM54.0857 73.1145L51.753 71.7937L49.7842 72.3342L49.027 71.9055L56.6896 69.9018L57.3321 70.2656L53.9257 74.6791L53.1723 74.2525L54.0857 73.1145ZM52.5756 71.5712L54.4685 72.643L56.1097 70.6058L52.5756 71.5712ZM58.957 74.9621L57.6491 74.2216L55.4095 75.5192L54.6714 75.1013L60.2078 71.8938L62.0511 72.9374C62.6782 73.2925 63.0181 73.6475 63.0707 74.0025C63.1259 74.359 62.8822 74.6944 62.3397 75.0087C61.9949 75.2084 61.6002 75.329 61.1555 75.3706C60.7134 75.4135 60.2619 75.3772 59.8012 75.2615L58.7591 77.3634L58.7135 77.3899L57.9257 76.9438L58.957 74.9621ZM58.2461 73.8758L59.3742 74.5145C59.7388 74.7209 60.122 74.8304 60.5237 74.8429C60.928 74.857 61.2873 74.7729 61.6016 74.5908C61.9439 74.3925 62.103 74.1821 62.079 73.9594C62.0576 73.7382 61.8544 73.5171 61.4694 73.2963L60.3451 72.6597L58.2461 73.8758ZM59.5013 77.8359L65.0377 74.6284L66.6094 75.5182C67.0938 75.7925 67.4156 76.0967 67.5749 76.4308C67.7342 76.7649 67.7181 77.1028 67.5266 77.4445C67.3376 77.7876 66.9896 78.1074 66.4826 78.4041L66.129 78.609C65.6068 78.9115 65.0472 79.1189 64.4504 79.231C63.856 79.3446 63.265 79.3556 62.6773 79.2638C62.0921 79.1735 61.5472 78.9884 61.0424 78.7084L59.5013 77.8359ZM65.1711 75.3921L60.8325 77.9057L61.605 78.3431C62.171 78.6635 62.7856 78.8112 63.4491 78.7861C64.115 78.7624 64.7712 78.5633 65.4176 78.1888L65.7408 78.0015C66.3695 77.6373 66.7084 77.2701 66.7574 76.9001C66.8115 76.5299 66.5683 76.189 66.0277 75.8771L65.1711 75.3921Z" fill="#2F80ED"/>
<path d="M83.5353 98.691L15.1412 59.342C14.3868 58.9086 14.4815 58.1628 15.3513 57.6499C16.221 57.1487 17.5404 57.0957 18.2948 57.529L86.6889 96.878C87.4433 97.3114 87.3487 98.0572 86.4759 98.5701C85.6062 99.0742 84.2897 99.1244 83.5353 98.691Z" fill="#2F80ED"/>
<path d="M43.7446 82.0704L9.69102 62.4785C8.93664 62.0422 9.03131 61.2846 9.90106 60.7834C10.7738 60.2823 12.0902 60.2292 12.8446 60.6625L46.8982 80.2545C47.6526 80.6879 47.5579 81.4337 46.6882 81.9466C45.8155 82.4478 44.499 82.5038 43.7446 82.0704Z" fill="#2F80ED"/>
<path d="M78.4053 102.022L53.7415 87.8366C52.9871 87.4003 53.0818 86.6427 53.9545 86.1416C54.8243 85.6404 56.1437 85.5873 56.8981 86.0207L81.5589 100.209C82.3133 100.642 82.2186 101.388 81.3459 101.901C80.4761 102.388 79.1567 102.444 78.4053 102.022Z" fill="#2F80ED"/>
</g>
<defs>
<linearGradient id="paint0_linear" x1="46.4591" y1="99.056" x2="104.876" y2="-3.86355" gradientUnits="userSpaceOnUse">
<stop offset="0.01"/>
<stop offset="0.13" stop-opacity="0.69"/>
<stop offset="1" stop-opacity="0"/>
</linearGradient>
<linearGradient id="paint1_linear" x1="38797" y1="7573.4" x2="24911.4" y2="34614.6" gradientUnits="userSpaceOnUse">
<stop offset="0.01"/>
<stop offset="0.13" stop-opacity="0.69"/>
<stop offset="1" stop-opacity="0"/>
</linearGradient>
<linearGradient id="paint2_linear" x1="181916" y1="-53433.1" x2="211617" y2="-69566.4" gradientUnits="userSpaceOnUse">
<stop offset="0.01"/>
<stop offset="0.13" stop-opacity="0.69"/>
<stop offset="1" stop-opacity="0"/>
</linearGradient>
<linearGradient id="paint3_linear" x1="226431" y1="-70921.7" x2="267645" y2="-91802.1" gradientUnits="userSpaceOnUse">
<stop offset="0.01"/>
<stop offset="0.13" stop-opacity="0.69"/>
<stop offset="1" stop-opacity="0"/>
</linearGradient>
<linearGradient id="paint4_linear" x1="176278" y1="-56020.5" x2="205978" y2="-72154.8" gradientUnits="userSpaceOnUse">
<stop offset="0.01"/>
<stop offset="0.13" stop-opacity="0.69"/>
<stop offset="1" stop-opacity="0"/>
</linearGradient>
<clipPath id="clip0">
<rect width="153" height="136" fill="white"/>
</clipPath>
</defs>
</svg>
