<?xml version="1.0" encoding="iso-8859-1"?>
<!-- Generator: Adobe Illustrator 19.0.0, SVG Export Plug-In . SVG Version: 6.00 Build 0)  -->
<svg version="1.1" id="Capa_1" xmlns="http://www.w3.org/2000/svg" xmlns:xlink="http://www.w3.org/1999/xlink" x="0px" y="0px"
	 viewBox="0 0 511.984 511.984" style="enable-background:new 0 0 511.984 511.984;" xml:space="preserve">
<path style="fill:#7FB239;" d="M124.456,20.16L58.92,270.992c-3.76,14.4,4.848,29.136,19.232,32.896l128.928,33.68
	c14.384,3.76,29.104-4.88,32.864-19.28L305.48,67.456c3.76-14.416-4.848-29.136-19.232-32.896L157.32,0.88
	C142.936-2.88,128.216,5.76,124.456,20.16z"/>
<path style="fill:#64892F;" d="M220.888,288.72c-13.216-3.456-26.736,4.48-30.192,17.712l-82.992-21.68
	c3.456-13.232-4.448-26.752-17.68-30.208l53.52-204.832c13.216,3.456,26.736-4.48,30.192-17.712l82.992,21.68
	c-3.456,13.232,4.448,26.768,17.68,30.208L220.888,288.72z"/>
<g>
	
		<ellipse transform="matrix(-0.9675 -0.2528 0.2528 -0.9675 315.7131 379.0215)" style="fill:#7FB239;" cx="182.207" cy="169.228" rx="50.703" ry="36.175"/>
	
		<ellipse transform="matrix(-0.9675 -0.2528 0.2528 -0.9675 250.0102 541.9552)" style="fill:#7FB239;" cx="159.823" cy="254.916" rx="17.248" ry="17.264"/>
	
		<ellipse transform="matrix(-0.9675 -0.2528 0.2528 -0.9675 381.4122 216.0541)" style="fill:#7FB239;" cx="204.586" cy="83.523" rx="17.248" ry="17.264"/>
</g>
<path style="fill:#8CC63E;" d="M350.504,82.336L117.752,196.72c-13.376,6.576-18.88,22.736-12.32,36.096l58.816,119.712
	c6.56,13.36,22.72,18.864,36.096,12.288l232.752-114.4c13.376-6.576,18.88-22.736,12.32-36.096L386.6,94.608
	C380.024,81.264,363.864,75.76,350.504,82.336z"/>
<path style="fill:#719D34;" d="M210.232,331.04c-6.032-12.272-20.88-17.328-33.152-11.296l-37.856-77.056
	c12.272-6.032,17.344-20.88,11.312-33.152l190.08-93.424c6.032,12.272,20.88,17.328,33.152,11.296l37.856,77.056
	c-12.272,6.032-17.344,20.88-11.312,33.152L210.232,331.04z"/>
<g>
	
		<ellipse transform="matrix(-0.4411 -0.8975 0.8975 -0.4411 196.1842 569.4918)" style="fill:#8CC63E;" cx="275.424" cy="223.657" rx="50.754" ry="36.193"/>
	
		<ellipse transform="matrix(-0.4411 -0.8975 0.8975 -0.4411 46.5847 554.3581)" style="fill:#8CC63E;" cx="195.912" cy="262.673" rx="17.265" ry="17.281"/>
	
		<ellipse transform="matrix(-0.4411 -0.8975 0.8975 -0.4411 345.8059 584.4289)" style="fill:#8CC63E;" cx="354.886" cy="184.535" rx="17.265" ry="17.281"/>
</g>
<path style="fill:#89664C;" d="M473.432,211.824v264.528c0,19.68-15.952,35.632-35.632,35.632H60.888
	c-19.68,0-35.632-15.952-35.632-35.632V211.824c0-19.68,15.952-35.632,35.632-35.632H437.8
	C457.48,176.192,473.432,192.144,473.432,211.824z"/>
<path style="fill:#7A5B44;" d="M473.432,211.824v264.528c0,19.68-15.952,35.632-35.632,35.632H60.888
	c-12.528,0-23.552-6.464-29.904-16.24c176.256-4.928,431.552-160.544,442.08-289.008C473.304,208.4,473.432,210.096,473.432,211.824
	z"/>
<g style="opacity:0.05;">
	<path style="fill:#FFFFFF;" d="M387.48,176.192C325.864,273.872,149.272,364.944,25.256,392V211.84
		c0-19.68,15.952-35.632,35.632-35.632H387.48V176.192z"/>
</g>
<path style="fill:#9A795F;" d="M486.728,314.64v58.928c0,7.92-6.432,14.352-14.352,14.352H370.008
	c-7.92,0-14.352-6.432-14.352-14.352V314.64c0-7.92,6.416-14.352,14.352-14.352h102.368
	C480.312,300.272,486.728,306.704,486.728,314.64z"/>
<path style="fill:#8F6D52;" d="M486.728,314.64v58.928c0,7.92-6.432,14.352-14.352,14.352H370.008c-2.864,0-5.536-0.832-7.776-2.288
	c43.52-1.456,95.472-29.552,117.504-64c2.56-4.016,4.624-7.952,6.176-11.76C486.456,311.36,486.728,312.96,486.728,314.64z"/>
<g style="opacity:0.05;">
	<path style="fill:#FFFFFF;" d="M451.768,300.272h-81.76c-7.92,0-14.352,6.432-14.352,14.352v43.36
		C392.04,354.8,432.76,330.48,451.768,300.272z"/>
</g>
<circle style="fill:#E9EFF4;" cx="403.672" cy="344.096" r="23.504"/>
<g style="opacity:0.3;">
	<path style="fill:#FFFFFF;" d="M408.136,325.008c0,12.976-10.512,23.504-23.504,23.504c-1.392,0-2.736-0.128-4.064-0.352
		c-0.224-1.312-0.352-2.672-0.352-4.064c0-12.976,10.512-23.504,23.504-23.504c1.392,0,2.736,0.128,4.064,0.352
		C408.008,322.272,408.136,323.632,408.136,325.008z"/>
</g>
<path style="fill:#DEE4E9;" d="M427.224,344.096c0,12.976-10.512,23.504-23.504,23.504c-9.088,0-16.96-5.152-20.88-12.688
	c3.232,1.68,6.912,2.64,10.816,2.64c12.976,0,23.488-10.512,23.488-23.504c0-3.904-0.944-7.584-2.64-10.816
	C422.072,327.136,427.224,335.008,427.224,344.096z"/>
<ellipse transform="matrix(-0.7072 -0.707 0.707 -0.7072 436.7205 845.4872)" style="fill:#FFFFFF;" cx="393.431" cy="332.314" rx="4.176" ry="6.736"/>
<g>
</g>
<g>
</g>
<g>
</g>
<g>
</g>
<g>
</g>
<g>
</g>
<g>
</g>
<g>
</g>
<g>
</g>
<g>
</g>
<g>
</g>
<g>
</g>
<g>
</g>
<g>
</g>
<g>
</g>
</svg>
