<svg id="outline" height="512" viewBox="0 0 512 512" width="512" xmlns="http://www.w3.org/2000/svg"><path d="m40 360h120v-16h-120a8.00917 8.00917 0 0 1 -8-8v-232h304v136h16v-200a24.0275 24.0275 0 0 0 -24-24h-288a24.0275 24.0275 0 0 0 -24 24v296a24.0275 24.0275 0 0 0 24 24zm0-328h288a8.00917 8.00917 0 0 1 8 8v48h-304v-48a8.00917 8.00917 0 0 1 8-8z"/><circle cx="48" cy="48" r="8"/><circle cx="72" cy="48" r="8"/><circle cx="96" cy="48" r="8"/><path d="m56 176v144a8.00039 8.00039 0 0 0 8 8h96a8.00039 8.00039 0 0 0 8-8v-40h120v-16h-24v-32h32v8h16v-112a8.00039 8.00039 0 0 0 -8-8h-144a8.00039 8.00039 0 0 0 -8 8v40h-88a8.00039 8.00039 0 0 0 -8 8zm64 8h128v32h-128zm32 80h-32v-32h32zm-48 0h-32v-32h32zm-32 16h32v32h-32zm80 32h-32v-32h32zm16-80h80v32h-80zm96-16v-32h32v32zm32-48h-80v-32h80zm-128-32h32v32h-32zm-96 48h32v32h-32z"/><path d="m80 136h16v16h-16z"/><path d="m120 136h16v16h-16z"/><path d="m192 296h16v16h-16z"/><path d="m64 480h16v16h-16z"/><path d="m480 480h16v16h-16z"/><path d="m440 208h-64a8.00039 8.00039 0 0 0 -8 8v40h-56a8.00039 8.00039 0 0 0 -8 8v32h-56a8.00039 8.00039 0 0 0 -8 8v32h-56a8.00039 8.00039 0 0 0 -8 8v32h-56a8.00039 8.00039 0 0 0 -8 8v96h-16v16h368v-16h-16v-264a8.00039 8.00039 0 0 0 -8-8zm-312 184h48v88h-48zm64-40h48v128h-48zm64-40h48v168h-48zm64-40h48v208h-48zm64 208v-256h48v256z"/></svg>